<svg xmlns="http://www.w3.org/2000/svg" fill="none" viewBox="0 0 16 16" id="Facebook-1--Streamline-Core-Remix.svg" height="16" width="16"><desc>Facebook 1 Streamline Icon: https://streamlinehq.com</desc><g id="Computer Devices/Logo/facebook-1--media-facebook-social"><path id="Union" fill="#ffffff" fill-rule="evenodd" d="M1.982662857142857 1.982662857142857C2.06304 1.9022971428571427 2.172045714285714 1.857142857142857 2.2857142857142856 1.857142857142857h11.428571428571427c0.11371428571428571 0 0.22262857142857143 0.045154285714285716 0.30308571428571424 0.12552 0.08034285714285715 0.08037714285714286 0.12548571428571428 0.18938285714285713 0.12548571428571428 0.3030514285714286v11.428571428571427c0 0.11371428571428571 -0.04514285714285714 0.22262857142857143 -0.12548571428571428 0.30308571428571424 -0.08045714285714285 0.08034285714285715 -0.18937142857142855 0.12548571428571428 -0.30308571428571424 0.12548571428571428H10.285714285714285V10.297142857142857h1.097142857142857c0.1849142857142857 0 0.3621714285714286 -0.07345142857142856 0.4929142857142857 -0.20418285714285714 0.13074285714285713 -0.13074285714285713 0.20422857142857143 -0.3080685714285714 0.20422857142857143 -0.49295999999999995v-0.88c0 -0.09155428571428571 -0.01805714285714286 -0.18220571428571425 -0.053028571428571425 -0.26678857142857143 -0.03508571428571428 -0.08458285714285714 -0.08639999999999999 -0.1614285714285714 -0.1512 -0.22616 -0.06468571428571428 -0.06474285714285714 -0.14159999999999998 -0.11609142857142857 -0.22617142857142855 -0.15113142857142856 -0.08457142857142856 -0.03502857142857143 -0.1752 -0.05306285714285714 -0.2667428571428571 -0.05306285714285714h-1.0514285714285714v-0.7885714285714285c0 -0.96 0.4342857142857143 -0.96 0.8685714285714285 -0.96h0.8457142857142856c0.092 0.003794285714285714 0.18365714285714285 -0.012674285714285713 0.2685714285714285 -0.048217142857142854 0.08491428571428572 -0.03554285714285714 0.1610285714285714 -0.08931428571428571 0.22285714285714286 -0.15749714285714284 0.0664 -0.06322285714285714 0.11897142857142856 -0.13955428571428571 0.15439999999999998 -0.22413714285714284 0.03542857142857143 -0.08458285714285714 0.05291428571428571 -0.1756 0.051314285714285715 -0.26729142857142857v-0.8457142857142856c0.003085714285714286 -0.09306285714285714 -0.012228571428571427 -0.18581714285714285 -0.04514285714285714 -0.2729485714285714 -0.032799999999999996 -0.08714285714285713 -0.08239999999999999 -0.16696 -0.1461714285714286 -0.23489142857142856 -0.06365714285714286 -0.06792 -0.14011428571428572 -0.12264 -0.2249142857142857 -0.16100571428571428S12.150171428571428 4.002948571428571 12.057142857142857 4c-0.12434285714285713 0 -0.252 -0.0013485714285714286 -0.3818285714285714 -0.0027085714285714287 -1.1423314285714286 -0.012034285714285713 -2.457382857142857 -0.025885714285714283 -3.269794285714285 0.8579085714285714 -0.7197028571428571 0.7829485714285714 -0.7026399999999999 1.7379885714285712 -0.6852 2.7143542857142857 0.002697142857142857 0.15077714285714283 0.005394285714285714 0.3020685714285714 0.005394285714285714 0.4533028571428571h-1.0171428571428571c-0.09250285714285714 -0.0015199999999999999 -0.18438857142857143 0.015394285714285713 -0.27029714285714285 0.04974857142857143 -0.08590857142857143 0.03435428571428571 -0.1641142857142857 0.08546285714285713 -0.23005714285714285 0.15035428571428572 -0.0659542857142857 0.06489142857142856 -0.11833142857142856 0.14225142857142856 -0.15408 0.22758857142857142 -0.03574857142857143 0.08533714285714285 -0.05414857142857142 0.17693714285714288 -0.054137142857142856 0.26945142857142856v0.88c-0.00001142857142857143 0.09252571428571428 0.018388571428571428 0.1841142857142857 0.054137142857142856 0.26945142857142856 0.03574857142857143 0.08533714285714285 0.08812571428571428 0.16269714285714285 0.15408 0.22758857142857142 0.06594285714285714 0.06489142857142856 0.1441485714285714 0.116 0.23005714285714285 0.15035428571428572 0.08590857142857143 0.03435428571428571 0.1777942857142857 0.05126857142857142 0.27029714285714285 0.04974857142857143h1.0171428571428571v3.8457142857142856H2.2857142857142856c-0.11366857142857142 0 -0.2226742857142857 -0.04514285714285714 -0.3030514285714286 -0.12548571428571428 -0.08036571428571428 -0.08045714285714285 -0.12552 -0.18937142857142855 -0.12552 -0.30308571428571424V2.2857142857142856c0 -0.11366857142857142 0.045154285714285716 -0.2226742857142857 0.12552 -0.3030514285714286ZM2.2857142857142856 0.42857142857142855c-0.4925485714285714 0 -0.9649142857142857 0.19566285714285714 -1.313198857142857 0.543944C0.6242342857142857 1.3208 0.42857142857142855 1.7931657142857143 0.42857142857142855 2.2857142857142856v11.428571428571427c0 0.49257142857142855 0.19566285714285714 0.9649142857142857 0.543944 1.3131428571428572 0.3482845714285714 0.3483428571428571 0.8206502857142857 0.5439999999999999 1.313198857142857 0.5439999999999999h11.428571428571427c0.49257142857142855 0 0.9649142857142857 -0.19565714285714284 1.3131428571428572 -0.5439999999999999 0.3483428571428571 -0.34822857142857144 0.5439999999999999 -0.8205714285714285 0.5439999999999999 -1.3131428571428572V2.2857142857142856c0 -0.4925485714285714 -0.19565714285714284 -0.9649142857142857 -0.5439999999999999 -1.313198857142857C14.6792 0.6242342857142857 14.20685714285714 0.42857142857142855 13.714285714285714 0.42857142857142855H2.2857142857142856Z" clip-rule="evenodd" stroke-width="1"></path></g></svg>